<?xml version="1.0" encoding="UTF-8"?>
<svg id="Layer_1" data-name="Layer 1" xmlns="http://www.w3.org/2000/svg" viewBox="0 0 457 650">
  <defs>
    <style>
      .cls-1 {
        fill: #f0ebe2;
      }
    </style>
  </defs>
  <path class="cls-1" d="m36.27,548.5c-.81-1.06-1.25-2.2-1.33-3.43-.08-1.23.2-2.44.83-3.64.63-1.2,1.6-2.3,2.92-3.31,1.32-1.01,2.65-1.65,3.97-1.94,1.33-.29,2.57-.23,3.74.17,1.17.4,2.15,1.13,2.96,2.19.54.71.91,1.44,1.12,2.19.2.75.26,1.49.18,2.21s-.27,1.4-.56,2.04c-.3.63-.67,1.2-1.13,1.69l-.62-.81c.37-.42.68-.9.91-1.43.23-.53.38-1.1.43-1.7.05-.6,0-1.21-.18-1.82s-.48-1.21-.91-1.79c-.64-.84-1.45-1.44-2.42-1.79-.98-.36-2.06-.42-3.24-.19-1.18.23-2.39.82-3.64,1.77-1.25.95-2.14,1.96-2.68,3.04-.54,1.07-.76,2.13-.67,3.16.09,1.03.45,1.97,1.09,2.81.44.58.93,1.03,1.48,1.35.55.33,1.12.54,1.71.65s1.17.12,1.75.04c.58-.08,1.12-.24,1.61-.49l.62.81c-.59.3-1.23.51-1.92.63-.69.12-1.39.12-2.11,0-.72-.12-1.41-.37-2.08-.76-.67-.39-1.28-.95-1.82-1.66Z"/>
  <path class="cls-1" d="m43.64,557.35l9.12-7.81.61.72-1.44,1.23.06.07c.64-.2,1.3-.19,1.99.04.69.23,1.29.64,1.8,1.24.06.07.11.13.16.2.05.07.1.13.15.19l-.74.64s-.07-.09-.13-.17c-.06-.08-.13-.17-.21-.27-.43-.5-.92-.85-1.48-1.06-.55-.21-1.12-.26-1.69-.16-.57.1-1.11.36-1.6.79l-5.98,5.12-.63-.73Z"/>
  <path class="cls-1" d="m52.53,567.68c-.74-.79-1.19-1.66-1.36-2.61-.16-.95-.05-1.91.32-2.87.38-.96,1-1.85,1.87-2.67.87-.82,1.8-1.39,2.78-1.71.98-.32,1.94-.39,2.86-.19.92.19,1.72.65,2.4,1.37.47.5.81,1.05,1.03,1.68.22.62.3,1.28.25,1.97s-.26,1.38-.61,2.07c-.35.69-.87,1.36-1.55,2.01l-.33.31-6.54-6.93.63-.6,6.18,6.55-.56-.09c.68-.64,1.17-1.34,1.49-2.1s.43-1.51.33-2.25-.42-1.4-.98-1.99c-.54-.57-1.19-.94-1.94-1.09-.75-.15-1.53-.1-2.32.16-.79.26-1.53.7-2.2,1.33l-.29.27c-.73.69-1.26,1.43-1.6,2.23-.34.8-.45,1.59-.33,2.38.12.79.49,1.52,1.11,2.18.45.48.92.81,1.39,1,.48.19.93.28,1.37.27.44,0,.82-.05,1.13-.15l.35.89c-.42.15-.9.21-1.46.21-.56,0-1.13-.13-1.73-.37-.6-.24-1.17-.65-1.72-1.23Z"/>
  <path class="cls-1" d="m61.72,576.91c-.5-.47-.87-1.01-1.1-1.61-.23-.6-.29-1.21-.18-1.84s.43-1.21.95-1.76c.34-.37.71-.63,1.11-.78.39-.16.82-.21,1.28-.16.46.05.96.21,1.51.48s1.14.64,1.79,1.12c.49.37.94.69,1.33.96.4.27.75.45,1.05.53.31.08.56,0,.77-.21l.34-.36c.4-.43.66-.88.77-1.35.11-.47.07-.95-.1-1.44s-.5-.95-.97-1.39c-.42-.39-.85-.68-1.29-.87-.45-.18-.89-.27-1.32-.27-.43,0-.84.1-1.23.28l-.45-.88c.57-.26,1.14-.38,1.72-.36.58.02,1.13.16,1.68.41s1.04.6,1.49,1.02c.39.37.71.78.97,1.22.25.45.41.91.48,1.4.07.49.02.98-.15,1.48s-.47.99-.92,1.46l-5.75,6.1-.7-.66,1.48-1.57-.06-.06c-.46.19-.95.29-1.47.3s-1.03-.07-1.55-.26c-.52-.19-1.01-.5-1.46-.93Zm.71-.58c.54.51,1.15.83,1.82.95.67.12,1.34.07,2.02-.17.68-.24,1.29-.65,1.84-1.24l1.21-1.28c-.16-.01-.35-.06-.57-.16s-.46-.22-.71-.36c-.25-.15-.5-.31-.76-.49-.25-.18-.5-.36-.74-.53-.7-.53-1.33-.9-1.88-1.11-.55-.21-1.03-.28-1.45-.21-.42.08-.8.3-1.15.66-.37.39-.59.82-.68,1.28-.08.46-.03.93.14,1.39.18.46.47.89.88,1.27Z"/>
  <path class="cls-1" d="m79.44,572.58l.73.63-8.04,9.31c-.43.5-.63.97-.59,1.41.04.44.31.81.81,1.11.07.04.15.09.25.14.09.05.18.1.25.15l-.4.79c-.1-.04-.21-.1-.33-.17-.12-.07-.22-.14-.32-.21-.75-.48-1.16-1.07-1.21-1.76-.06-.7.2-1.38.77-2.05l8.07-9.35Zm.75,4.42l-.58.67-3.97-3.42.58-.67,3.97,3.42Z"/>
  <path class="cls-1" d="m75.52,588.72l7.58-9.31.75.61-7.58,9.31-.75-.61Zm9.52-10.94c-.17-.13-.26-.31-.29-.52s.03-.4.16-.56c.14-.17.31-.26.52-.28s.4.04.57.18c.17.14.27.32.3.53.03.21-.03.4-.16.57-.13.16-.3.25-.52.27-.21.02-.41-.04-.58-.18Z"/>
  <path class="cls-1" d="m86.14,587.25l-4.64,6.23-.78-.58,7.17-9.63.76.56-1.6,2.15-.14-.1c.82-.61,1.66-.88,2.53-.81.86.07,1.66.38,2.39.92.65.49,1.13,1.05,1.43,1.7.3.64.4,1.33.3,2.04-.1.72-.41,1.43-.94,2.15l-4.73,6.35-.78-.58,4.7-6.31c.62-.83.86-1.67.73-2.54-.13-.87-.59-1.6-1.4-2.2-.55-.41-1.13-.66-1.75-.75-.62-.09-1.21-.02-1.77.21-.57.23-1.06.63-1.48,1.19Z"/>
  <path class="cls-1" d="m93.72,607.96c-.62-.41-1.13-.86-1.53-1.35-.39-.49-.67-1-.81-1.53s-.18-1.07-.09-1.6l.96.06c-.07.43-.04.86.07,1.29.11.43.32.85.63,1.25.31.4.73.78,1.26,1.13.96.63,1.89.88,2.78.76.89-.13,1.67-.7,2.34-1.73l1.63-2.49-.09-.06c-.44.33-.92.57-1.44.71-.52.14-1.06.16-1.61.08s-1.1-.31-1.65-.67c-.79-.52-1.35-1.18-1.69-1.98s-.43-1.69-.28-2.65.55-1.95,1.21-2.96c.66-1.01,1.41-1.79,2.25-2.34s1.71-.86,2.6-.9,1.74.19,2.54.72c.58.38,1,.81,1.29,1.31.28.5.45,1.02.5,1.57.05.55.01,1.09-.11,1.63l.08.05,1.47-2.25.8.52-6.74,10.28c-.54.83-1.17,1.42-1.86,1.76s-1.43.45-2.2.34c-.77-.12-1.55-.43-2.33-.95Zm3.03-4.84c.67.44,1.35.64,2.06.62.71-.02,1.4-.27,2.08-.73.67-.46,1.3-1.13,1.87-2,.55-.84.91-1.67,1.09-2.5.18-.83.15-1.59-.08-2.29-.23-.7-.69-1.27-1.37-1.72-.69-.45-1.4-.64-2.15-.57-.74.07-1.46.35-2.15.84s-1.31,1.15-1.85,1.98c-.55.83-.9,1.65-1.05,2.46s-.11,1.55.15,2.22c.25.68.72,1.24,1.41,1.69Z"/>
  <path class="cls-1" d="m115.85,615.79c-.87-.47-1.53-1.12-1.96-1.95-.44-.83-.63-1.77-.58-2.8.05-1.03.35-2.08.92-3.14s1.26-1.9,2.09-2.51c.83-.61,1.71-.97,2.65-1.07.93-.1,1.84.08,2.71.55.56.3,1.02.66,1.36,1.08.34.42.6.85.78,1.29.18.44.29.85.34,1.23.05.38.06.68.02.89l-.96-.12c.02-.14.02-.36-.01-.66s-.11-.62-.24-.97c-.13-.35-.33-.7-.6-1.05-.27-.34-.64-.64-1.11-.89-.73-.39-1.48-.53-2.25-.41-.77.12-1.49.44-2.17.98-.68.54-1.26,1.25-1.73,2.13-.47.88-.74,1.76-.81,2.62-.07.86.06,1.65.4,2.35.33.7.87,1.25,1.6,1.64.47.25.92.39,1.37.43s.86.01,1.23-.08c.37-.09.69-.21.96-.35.27-.14.45-.26.56-.36l.64.72c-.17.16-.42.32-.77.49-.35.17-.76.31-1.22.41-.47.1-.98.13-1.53.08-.55-.05-1.11-.23-1.67-.54Z"/>
  <path class="cls-1" d="m128.07,621.81c-.74-.34-1.32-.8-1.75-1.37-.42-.57-.66-1.22-.71-1.94s.11-1.49.48-2.29l3.32-7.19.88.41-3.29,7.14c-.43.94-.49,1.82-.19,2.64.31.82.92,1.45,1.83,1.87.62.29,1.25.41,1.86.37.62-.04,1.18-.23,1.69-.58s.91-.83,1.2-1.46l3.25-7.05.89.41-5.03,10.91-.86-.4,1.12-2.44.16.07c-.68.76-1.46,1.2-2.31,1.31-.86.11-1.7-.03-2.52-.4Z"/>
  <path class="cls-1" d="m144.69,611.42l-6.07,14.81-.89-.37,6.07-14.81.89.37Z"/>
  <path class="cls-1" d="m143.79,628.26l4.26-11.23.9.34-4.26,11.23-.9-.34Zm5.58-13.38c-.2-.08-.35-.21-.44-.41s-.1-.39-.03-.58c.08-.2.21-.34.41-.43.2-.08.39-.09.59,0,.21.08.36.21.45.41.09.19.1.39.02.59-.07.19-.21.33-.41.42s-.4.09-.61.01Z"/>
  <path class="cls-1" d="m153.41,623.52l-2.43,7.38-.92-.3,3.76-11.41.9.3-.84,2.55-.16-.05c.58-.84,1.3-1.36,2.14-1.57.84-.21,1.69-.17,2.56.12.78.26,1.41.64,1.89,1.16.49.52.8,1.13.93,1.84s.06,1.49-.21,2.33l-2.48,7.52-.93-.31,2.46-7.47c.32-.98.29-1.86-.11-2.64s-1.07-1.33-2.02-1.64c-.65-.21-1.29-.27-1.9-.16s-1.15.36-1.61.76c-.46.4-.8.93-1.02,1.6Z"/>
  <path class="cls-1" d="m166.93,636.06c-.66-.18-1.24-.47-1.73-.89s-.83-.93-1.03-1.53-.2-1.27,0-2c.13-.49.33-.89.6-1.21.27-.32.62-.57,1.05-.74.43-.17.95-.27,1.55-.3s1.31.02,2.11.13c.61.09,1.15.16,1.63.21s.87.04,1.18-.04c.31-.08.5-.26.57-.55l.13-.48c.15-.57.16-1.09.03-1.55-.13-.47-.39-.87-.78-1.22-.39-.34-.89-.6-1.51-.76-.55-.15-1.07-.2-1.55-.14-.48.05-.91.18-1.29.39s-.69.49-.95.83l-.82-.56c.38-.5.82-.88,1.34-1.13.52-.26,1.07-.4,1.67-.43s1.2.03,1.8.19c.52.14,1,.34,1.43.61.44.27.8.61,1.09,1.01s.48.86.57,1.38c.09.52.06,1.09-.11,1.72l-2.15,8.1-.93-.25.55-2.09-.08-.02c-.32.38-.7.7-1.14.96s-.94.43-1.49.51c-.54.08-1.12.04-1.73-.12Zm.35-.84c.72.19,1.4.18,2.05-.03.65-.21,1.21-.58,1.7-1.12.48-.54.83-1.19,1.03-1.97l.45-1.7c-.14.07-.33.11-.57.13-.24.02-.5.03-.79.02-.29,0-.59-.03-.9-.07s-.61-.08-.9-.12c-.87-.13-1.6-.16-2.18-.08-.58.07-1.04.24-1.37.51-.33.27-.57.64-.69,1.13-.14.52-.13,1,.02,1.45.15.45.41.83.79,1.15.38.32.84.56,1.38.7Z"/>
  <path class="cls-1" d="m177.38,638.36l2.52-11.74.92.2-.4,1.85.08.02c.39-.55.92-.94,1.61-1.18.68-.24,1.41-.27,2.18-.11.08.02.17.04.25.06.08.02.16.04.23.06l-.21.96s-.11-.03-.21-.06-.21-.06-.33-.09c-.64-.14-1.25-.12-1.82.05-.57.17-1.05.47-1.45.9-.4.43-.66.96-.8,1.6l-1.65,7.7-.95-.2Z"/>
  <path class="cls-1" d="m185.62,644.45l.42-.78.13.06c.43.24.84.35,1.23.35.39,0,.75-.14,1.09-.4s.66-.66.96-1.19l.87-1.51-2.61-12.71,1.05.17,1.66,8.34c.13.66.25,1.32.34,1.96.09.65.19,1.29.29,1.92l-.32-.05c.3-.57.6-1.14.9-1.73.29-.59.61-1.17.94-1.76l4.25-7.38,1.04.17-7.6,13.07c-.29.5-.61.91-.96,1.23-.34.31-.71.53-1.11.65s-.81.15-1.26.07c-.25-.04-.48-.1-.71-.19-.23-.09-.42-.19-.59-.3Z"/>
  <path class="cls-1" d="m212.46,648.2c-.74-.05-1.41-.19-1.99-.42-.58-.23-1.07-.54-1.46-.94-.39-.39-.68-.84-.87-1.35l.87-.42c.15.41.38.77.69,1.09s.7.58,1.17.78c.47.2,1.02.32,1.66.36,1.15.08,2.08-.16,2.79-.71.71-.55,1.11-1.43,1.19-2.66l.2-2.97h-.11c-.22.5-.52.95-.91,1.32-.38.38-.84.66-1.37.86-.53.2-1.12.27-1.76.23-.94-.06-1.76-.36-2.44-.89-.69-.53-1.2-1.26-1.55-2.18-.34-.92-.48-1.97-.4-3.18.08-1.2.35-2.25.81-3.15s1.07-1.59,1.82-2.06c.75-.48,1.61-.68,2.57-.62.69.04,1.27.21,1.76.5s.89.66,1.21,1.12c.31.46.55.95.71,1.47h.1s.18-2.67.18-2.67l.95.06-.82,12.26c-.07.99-.32,1.81-.76,2.45-.44.64-1.02,1.1-1.75,1.37-.73.28-1.56.39-2.5.32Zm.26-5.71c.79.05,1.49-.11,2.1-.47.61-.37,1.09-.92,1.45-1.65.36-.73.58-1.62.65-2.65.07-1-.03-1.91-.28-2.72-.25-.81-.65-1.46-1.2-1.96-.55-.5-1.23-.77-2.03-.83-.82-.05-1.54.13-2.15.56s-1.1,1.02-1.46,1.79c-.36.77-.57,1.65-.64,2.63-.07.99.03,1.88.29,2.66.26.78.67,1.4,1.22,1.86.55.46,1.24.72,2.05.78Z"/>
  <path class="cls-1" d="m226.17,644.25c-.69-.01-1.32-.16-1.89-.45s-1.03-.7-1.37-1.24c-.34-.54-.5-1.18-.49-1.94,0-.5.1-.94.29-1.32.19-.38.46-.71.84-.97s.85-.49,1.43-.67c.58-.17,1.28-.3,2.08-.38.61-.06,1.15-.12,1.63-.19.48-.06.86-.17,1.13-.32.28-.15.42-.38.42-.68v-.49c.02-.59-.1-1.09-.34-1.51s-.59-.75-1.05-1-1.01-.37-1.65-.38c-.57,0-1.09.07-1.54.23-.45.16-.84.39-1.16.69-.32.29-.56.64-.72,1.03l-.93-.35c.25-.58.59-1.05,1.03-1.42.44-.37.95-.65,1.52-.82.57-.18,1.17-.26,1.79-.25.54,0,1.05.09,1.54.25.49.16.92.4,1.3.71.38.32.67.72.89,1.2.21.48.32,1.05.31,1.7l-.14,8.38-.97-.02.04-2.16h-.09c-.22.45-.51.85-.88,1.21-.37.36-.81.64-1.32.85-.51.21-1.08.31-1.71.3Zm.13-.9c.74.01,1.41-.16,1.99-.52.58-.36,1.04-.86,1.38-1.49.34-.64.52-1.35.53-2.16l.03-1.76c-.12.1-.3.19-.53.27-.23.08-.48.15-.77.21-.28.06-.58.11-.89.15s-.61.07-.9.1c-.88.09-1.59.23-2.13.44-.55.21-.95.48-1.21.82-.26.34-.39.76-.4,1.26,0,.54.11,1,.36,1.4.25.4.6.71,1.04.93.44.22.95.34,1.5.35Z"/>
  <path class="cls-1" d="m239.76,631.71l.04.88-5.24.21-.04-.88,5.24-.21Zm-3.57-2.72l.97-.04.49,12.29c.03.66.2,1.13.53,1.43s.78.38,1.35.26c.08-.02.17-.04.28-.06.11-.03.2-.05.29-.07l.25.85c-.11.04-.22.08-.36.11-.13.03-.26.05-.38.06-.88.16-1.57.01-2.09-.46-.52-.47-.8-1.14-.83-2.03l-.49-12.34Z"/>
  <path class="cls-1" d="m244.82,635.67l.68,7.74-.96.08-1.4-15.94.96-.08.59,6.66-.19.02c.21-1,.66-1.77,1.35-2.29.69-.52,1.49-.82,2.4-.9.81-.07,1.54.04,2.2.32s1.18.73,1.58,1.33.65,1.34.72,2.23l.69,7.89-.97.08-.69-7.83c-.09-1.03-.47-1.82-1.14-2.38-.67-.56-1.51-.8-2.5-.71-.69.06-1.29.26-1.81.6-.52.34-.91.79-1.18,1.33-.27.55-.37,1.17-.31,1.87Z"/>
  <path class="cls-1" d="m263.95,641.55c-1.07.16-2.04.04-2.92-.37s-1.6-1.04-2.18-1.9c-.58-.86-.95-1.88-1.13-3.06-.18-1.18-.12-2.27.17-3.26.3-.99.79-1.81,1.47-2.46.68-.65,1.51-1.04,2.49-1.19.67-.1,1.33-.07,1.97.11.64.17,1.22.48,1.76.92.53.44.99,1,1.36,1.68.37.68.63,1.49.77,2.42l.07.45-9.42,1.43-.13-.86,8.9-1.35-.39.41c-.14-.92-.43-1.73-.88-2.42s-1-1.21-1.66-1.55c-.66-.34-1.4-.45-2.2-.33-.78.12-1.45.44-2,.98-.55.53-.95,1.2-1.19,1.99-.24.8-.29,1.65-.16,2.57l.06.39c.15.99.46,1.85.92,2.58s1.05,1.27,1.77,1.63c.72.36,1.52.46,2.42.33.65-.1,1.19-.29,1.61-.58s.76-.61,1-.97c.25-.36.42-.7.53-1.01l.93.22c-.12.42-.34.86-.66,1.32-.32.46-.75.86-1.29,1.21-.54.35-1.2.59-1.99.71Z"/>
  <path class="cls-1" d="m273.54,639.63l-2.39-11.77.93-.19.38,1.85.08-.02c.14-.66.47-1.23,1-1.72.53-.49,1.18-.82,1.96-.97.08-.02.17-.03.25-.04.08-.01.16-.03.24-.04l.19.96s-.11.02-.21.03c-.1,0-.21.03-.34.05-.65.13-1.2.39-1.65.77-.45.38-.77.85-.96,1.4s-.22,1.14-.09,1.78l1.57,7.72-.95.19Z"/>
  <path class="cls-1" d="m279.82,623.43c-.21.05-.41.02-.59-.09-.19-.11-.3-.27-.35-.47-.05-.21-.02-.4.1-.58.12-.18.28-.29.49-.34.22-.05.42-.02.6.08.18.11.3.26.35.47.05.2.01.39-.1.58-.11.18-.28.3-.5.35Zm2.9,14.21l-2.79-11.68.94-.22,2.79,11.68-.94.22Z"/>
  <path class="cls-1" d="m288.02,628.32l2.14,7.47-.93.27-3.3-11.55.91-.26.74,2.58-.17.05c.01-1.02.31-1.86.89-2.5.58-.64,1.31-1.09,2.18-1.34.78-.22,1.52-.26,2.22-.1.69.16,1.29.49,1.81,1,.51.51.89,1.2,1.13,2.05l2.18,7.61-.94.27-2.16-7.56c-.28-.99-.81-1.7-1.57-2.12-.77-.42-1.63-.5-2.6-.22-.66.19-1.21.5-1.66.93-.45.43-.75.94-.91,1.53-.16.59-.14,1.22.05,1.9Z"/>
  <path class="cls-1" d="m309.09,634.83c-.7.25-1.37.38-2,.4-.63.02-1.2-.08-1.71-.28-.51-.21-.96-.5-1.33-.9l.63-.73c.3.31.66.55,1.07.73.41.17.87.26,1.38.26.51,0,1.06-.11,1.66-.32,1.09-.38,1.85-.97,2.29-1.75.44-.79.45-1.75.04-2.91l-.99-2.8-.1.04c0,.56-.1,1.08-.31,1.58-.2.5-.51.94-.92,1.33-.41.39-.92.69-1.53.91-.89.32-1.76.36-2.6.14-.84-.22-1.6-.68-2.28-1.39-.68-.71-1.22-1.62-1.62-2.76-.4-1.13-.57-2.21-.5-3.21.07-1.01.35-1.88.86-2.62s1.21-1.26,2.11-1.58c.65-.23,1.25-.31,1.82-.23s1.08.26,1.55.55c.47.29.88.65,1.23,1.07l.09-.03-.9-2.53.9-.32,4.1,11.58c.33.94.42,1.79.27,2.55-.15.76-.5,1.41-1.06,1.95-.56.54-1.28.97-2.17,1.29Zm-2.02-5.35c.75-.27,1.33-.69,1.74-1.27.41-.58.64-1.28.68-2.09s-.11-1.71-.46-2.69c-.33-.95-.78-1.74-1.33-2.38s-1.18-1.09-1.88-1.32c-.7-.24-1.43-.22-2.19.05-.78.27-1.36.73-1.76,1.36-.39.63-.61,1.38-.63,2.22s.13,1.74.46,2.67c.33.94.77,1.71,1.32,2.33.55.61,1.17,1.02,1.86,1.23s1.42.17,2.19-.1Z"/>
  <path class="cls-1" d="m320.75,625.52c-.69.29-1.34.43-1.96.44s-1.19-.13-1.71-.41c-.52-.28-.97-.69-1.35-1.24l.77-.57c.47.66,1.04,1.07,1.7,1.23.67.16,1.4.07,2.21-.27.89-.37,1.52-.89,1.89-1.55.37-.66.42-1.32.14-1.98-.21-.51-.56-.87-1.03-1.08-.47-.21-1.07-.26-1.79-.14l-1.95.3c-1,.16-1.82.09-2.49-.2-.66-.3-1.14-.81-1.44-1.53-.25-.59-.31-1.18-.19-1.77.12-.58.41-1.12.85-1.6s1.02-.88,1.73-1.17c.63-.26,1.22-.39,1.77-.39s1.07.12,1.55.37c.48.25.92.6,1.33,1.07l-.75.57c-.46-.52-.98-.87-1.57-1.03s-1.25-.09-2,.22c-.81.34-1.39.82-1.73,1.44-.34.62-.38,1.25-.11,1.9.22.51.57.88,1.06,1.08.49.21,1.13.25,1.92.13l1.9-.3c.96-.15,1.76-.08,2.41.21.65.29,1.12.79,1.42,1.51.26.61.32,1.23.19,1.84-.13.61-.44,1.17-.91,1.69-.48.51-1.1.93-1.87,1.26Z"/>
  <path class="cls-1" d="m339.53,616.7c-.66.34-1.3.55-1.92.6-.62.06-1.2-.03-1.74-.27s-1.02-.61-1.45-1.12l.72-.63c.52.62,1.12.97,1.8,1.08s1.4-.05,2.18-.45c.86-.45,1.44-1.02,1.76-1.71s.31-1.35-.03-1.99c-.26-.49-.63-.82-1.12-.99-.49-.17-1.09-.17-1.79.01l-1.91.47c-.98.25-1.81.25-2.49,0-.68-.24-1.21-.71-1.57-1.4-.3-.57-.41-1.15-.34-1.75.07-.59.31-1.15.71-1.67.4-.52.94-.96,1.63-1.32.6-.31,1.18-.5,1.73-.54.55-.05,1.08.03,1.58.24.5.21.97.52,1.41.95l-.7.63c-.5-.48-1.05-.78-1.65-.9s-1.25.01-1.97.39c-.78.41-1.32.93-1.61,1.58-.29.64-.27,1.28.05,1.9.26.5.64.83,1.15.99.51.17,1.15.15,1.92-.03l1.87-.46c.94-.23,1.75-.23,2.42,0,.67.24,1.18.7,1.54,1.38.31.59.42,1.2.34,1.81-.08.62-.34,1.21-.77,1.76s-1.02,1.02-1.76,1.41Z"/>
  <path class="cls-1" d="m340.75,599.22c-.19.11-.38.13-.59.08-.21-.05-.36-.17-.47-.35-.11-.19-.13-.38-.07-.59.06-.2.18-.36.37-.47.19-.11.39-.14.6-.09.21.05.36.17.47.36.1.18.12.37.07.58s-.18.37-.38.48Zm6.8,12.81l-5.97-10.42.84-.48,5.97,10.42-.84.48Z"/>
  <path class="cls-1" d="m349.99,601.6l4.15,6.57-.82.52-6.42-10.15.8-.5,1.43,2.27-.15.09c-.28-.99-.23-1.87.15-2.65.38-.78.95-1.41,1.72-1.9.69-.44,1.39-.68,2.1-.72.71-.05,1.38.11,2.02.45.64.35,1.19.9,1.67,1.65l4.23,6.69-.83.52-4.2-6.65c-.55-.87-1.25-1.4-2.11-1.6-.85-.19-1.71-.02-2.55.51-.58.37-1.02.82-1.33,1.36-.31.54-.45,1.12-.44,1.73.01.61.21,1.21.58,1.81Z"/>
  <path class="cls-1" d="m369.46,598.2c-.8.58-1.67.88-2.62.9s-1.86-.22-2.77-.71-1.71-1.24-2.41-2.21c-.7-.98-1.14-1.97-1.32-2.99-.18-1.01-.11-1.96.21-2.85.32-.88.89-1.61,1.69-2.19.52-.37,1.04-.62,1.57-.74s1.03-.17,1.5-.13c.47.04.89.12,1.25.24s.63.25.81.38l-.53.8c-.12-.08-.32-.17-.6-.28-.28-.11-.6-.18-.98-.22s-.78-.01-1.21.08c-.43.09-.86.29-1.29.6-.67.48-1.13,1.1-1.37,1.84-.24.74-.26,1.54-.08,2.38.18.85.56,1.68,1.15,2.5.58.81,1.25,1.44,1.99,1.89.75.44,1.51.67,2.28.68s1.5-.22,2.18-.71c.43-.31.76-.65,1-1.04.23-.38.39-.76.47-1.14.08-.38.12-.71.11-1.02,0-.3-.03-.52-.07-.66l.93-.25c.07.22.1.52.1.91s-.06.81-.17,1.28-.32.93-.61,1.4c-.29.47-.7.89-1.22,1.26Z"/>
  <path class="cls-1" d="m380.71,589.67c-.84.68-1.74,1.06-2.71,1.15-.96.09-1.91-.09-2.84-.54-.93-.45-1.77-1.14-2.52-2.07-.75-.93-1.25-1.9-1.5-2.91-.25-1.01-.24-1.96.03-2.87.26-.9.78-1.67,1.55-2.29.53-.43,1.11-.73,1.75-.9.64-.17,1.3-.2,1.98-.09.68.11,1.35.36,2.02.76.67.4,1.29.97,1.88,1.7l.28.35-7.41,5.99-.55-.68,7-5.66-.13.55c-.58-.72-1.25-1.27-1.98-1.65-.73-.37-1.47-.54-2.22-.5s-1.43.31-2.06.82c-.61.5-1.02,1.11-1.23,1.85-.21.74-.22,1.51-.02,2.32.19.81.58,1.57,1.16,2.29l.25.31c.63.78,1.33,1.37,2.1,1.77.77.4,1.55.57,2.35.51.8-.05,1.55-.37,2.26-.94.51-.41.88-.85,1.1-1.31.22-.46.35-.91.38-1.35.03-.44,0-.82-.06-1.14l.92-.28c.11.42.14.91.1,1.47-.05.56-.22,1.12-.51,1.7-.29.58-.74,1.12-1.36,1.62Z"/>
  <path class="cls-1" d="m393.9,577.91l-.53-.55-.46-7.88c-.07-1.12-.15-2.05-.25-2.76s-.25-1.31-.45-1.79c-.2-.47-.49-.9-.85-1.27-.46-.47-.96-.77-1.53-.92-.56-.15-1.13-.14-1.7.02-.57.16-1.09.47-1.57.94-.5.49-.83,1.02-.99,1.61-.16.59-.17,1.17,0,1.75.16.58.47,1.1.92,1.57l-.7.68c-.58-.59-.96-1.26-1.15-2s-.17-1.49.04-2.24c.21-.75.63-1.43,1.25-2.03.62-.6,1.29-1,2.03-1.2.74-.2,1.46-.2,2.18,0s1.36.58,1.92,1.16c.41.42.73.88.96,1.41.24.53.42,1.2.54,2.02.12.82.22,1.88.29,3.19l.39,6.58.06.06,6-5.85.64.66-7.04,6.86Z"/>
  <path class="cls-1" d="m408.2,563.59c-.72.8-1.58,1.26-2.58,1.39-1,.13-2.1-.06-3.28-.58-1.19-.52-2.41-1.35-3.68-2.49-1.27-1.15-2.22-2.29-2.86-3.41s-.94-2.2-.91-3.22.4-1.92,1.12-2.71c.72-.8,1.58-1.26,2.58-1.39,1-.13,2.1.07,3.29.58,1.19.52,2.42,1.35,3.69,2.5,1.26,1.14,2.22,2.28,2.85,3.4s.94,2.19.92,3.2-.4,1.91-1.13,2.72Zm-.69-.62c.58-.64.86-1.39.84-2.24-.02-.85-.32-1.76-.9-2.74-.58-.97-1.44-1.97-2.56-2.99-1.13-1.02-2.22-1.78-3.25-2.26-1.03-.48-1.97-.69-2.82-.62s-1.56.43-2.14,1.07c-.58.64-.86,1.39-.85,2.25s.32,1.77.9,2.75c.58.98,1.44,1.98,2.58,3,1.13,1.02,2.2,1.77,3.23,2.25,1.03.48,1.97.68,2.82.61.85-.07,1.57-.43,2.15-1.07Z"/>
  <path class="cls-1" d="m405.01,542.3l12.43,10.08-.63.78-11.67-9.46-.05.07-.19,4.46-.88-.72.18-4.21.81-1Z"/>
  <path class="cls-1" d="m423.84,544.34c-.49.67-1.06,1.16-1.73,1.45-.66.3-1.36.41-2.1.34-.74-.07-1.47-.32-2.2-.75l.59-.81c.85.48,1.69.67,2.54.57.85-.1,1.56-.55,2.14-1.35.54-.75.75-1.55.63-2.42-.12-.87-.56-1.78-1.31-2.73-.75-.95-1.81-1.92-3.16-2.9l-.05.07c.28.46.45.97.52,1.52.07.56.04,1.11-.1,1.68-.14.56-.38,1.08-.73,1.57-.51.7-1.16,1.21-1.94,1.53s-1.62.43-2.49.32c-.88-.1-1.7-.44-2.49-1.01-.75-.54-1.32-1.21-1.71-1.99s-.57-1.6-.52-2.46.36-1.67.93-2.45c.4-.54.89-.98,1.47-1.3.59-.32,1.26-.49,2.02-.52.76-.03,1.6.13,2.52.47.92.34,1.92.9,3,1.68.96.7,1.82,1.44,2.58,2.23.76.79,1.35,1.59,1.79,2.41.43.82.65,1.65.64,2.47,0,.82-.28,1.61-.84,2.38Zm-5.64-4.41c.33-.46.55-.95.64-1.49.1-.54.08-1.06-.04-1.59-.12-.52-.34-1-.67-1.44s-.74-.79-1.25-1.07c-.74-.39-1.46-.62-2.15-.69-.69-.07-1.32.02-1.9.25s-1.06.62-1.44,1.16c-.43.59-.66,1.23-.69,1.91-.03.68.11,1.35.43,1.98s.78,1.18,1.4,1.63c.63.46,1.3.74,2.02.83.71.1,1.39.02,2.04-.23.64-.25,1.18-.68,1.61-1.27Z"/>
</svg>