<svg width="767" height="169" viewBox="0 0 767 169" fill="none" xmlns="http://www.w3.org/2000/svg">
<path d="M272.04 130.548C266.481 130.548 264.372 129.014 264.372 126.139C264.372 121.155 275.874 120.963 275.874 113.295V55.9765C276.066 53.8678 275.107 52.1425 273.765 51.3757C266.864 47.7334 263.797 46.7749 263.797 43.1326C263.797 39.2986 279.133 32.014 285.267 32.014C291.785 32.014 293.127 34.8895 293.319 41.0239V49.8421H293.894C299.645 37.5733 309.038 31.8223 317.09 31.8223C324.949 31.8223 328.783 36.0397 328.783 41.2156C328.783 49.0753 323.224 52.1425 317.665 52.1425C314.022 52.1425 312.297 50.9923 307.696 50.9923C300.603 50.9923 293.51 54.8263 293.51 75.3382V113.295C293.51 120.963 305.012 121.155 305.012 126.139C305.012 129.014 302.904 130.548 297.344 130.548H272.04Z" fill="#F0EBE2"/>
</svg>
