<svg width="767" height="169" viewBox="0 0 767 169" fill="none" xmlns="http://www.w3.org/2000/svg">
<path d="M756.438 18.0529V11.8867H759.217C760.636 11.8867 761.438 12.478 761.438 13.7281C761.438 14.6151 760.948 15.257 760.078 15.4766L761.472 18.0529H760.146L758.929 15.5611H757.654V18.0529H756.438ZM758.98 14.8093C759.757 14.8093 760.188 14.4715 760.188 13.8211C760.188 13.1791 759.757 12.8412 758.98 12.8412H757.654V14.8093H758.98Z" fill="#F0EBE2"/>
<path fill-rule="evenodd" clip-rule="evenodd" d="M758.767 21.7284C762.235 21.7284 765.047 18.9171 765.047 15.4491C765.047 11.9811 762.235 9.16976 758.767 9.16976C755.299 9.16976 752.488 11.9811 752.488 15.4491C752.488 18.9171 755.299 21.7284 758.767 21.7284ZM758.767 23.1697C763.031 23.1697 766.488 19.7131 766.488 15.4491C766.488 11.1851 763.031 7.72852 758.767 7.72852C754.503 7.72852 751.047 11.1851 751.047 15.4491C751.047 19.7131 754.503 23.1697 758.767 23.1697Z" fill="#F0EBE2"/>
</svg>
