<svg width="767" height="169" viewBox="0 0 767 169" fill="none" xmlns="http://www.w3.org/2000/svg">
<path d="M188.268 133.423C171.59 133.423 161.43 123.647 161.43 109.653C161.43 94.8916 173.315 86.6485 199.003 77.6386C218.365 70.9291 222.007 66.1366 222.007 56.3599C222.007 47.5417 217.79 39.4903 204.946 39.4903C193.827 39.4903 186.351 46.3915 180.983 57.3184C178.874 61.7275 176.574 64.9864 172.165 64.9864C167.947 64.9864 164.689 61.7275 164.689 56.7433C164.689 45.6247 182.325 31.8223 205.904 31.8223C231.4 31.8223 240.794 43.7077 240.794 66.52V110.419C240.794 123.072 252.296 118.279 252.296 125.947C252.296 129.973 247.311 133.423 239.835 133.423C230.442 133.423 223.541 126.714 223.541 118.087V114.828H222.774C214.531 127.672 204.371 133.423 188.268 133.423ZM196.319 120.579C209.93 120.579 223.541 110.036 223.541 88.1821V77.8303C215.297 81.2809 208.396 83.9647 201.112 86.8402C184.242 93.358 179.833 98.7256 179.833 106.969C179.833 115.212 186.159 120.579 196.319 120.579Z" fill="#F0EBE2"/>
</svg>
