<svg width="767" height="169" viewBox="0 0 767 169" fill="none" xmlns="http://www.w3.org/2000/svg">
<path d="M659.382 104.669C661.299 104.669 662.641 106.011 662.641 108.119C662.641 109.461 662.258 110.803 661.491 112.337C655.74 124.606 641.938 133.424 625.643 133.424C595.738 133.424 575.609 113.104 575.609 83.39C575.609 53.6765 596.121 32.2061 623.726 32.2061C649.414 32.2061 662.641 47.9255 662.641 70.9295C662.641 77.8307 659.382 81.0896 651.523 81.0896H595.738C596.888 102.752 610.691 118.663 630.627 118.663C640.979 118.663 647.497 114.254 654.398 107.353C656.315 105.436 657.465 104.669 659.382 104.669ZM621.234 39.8741C607.815 39.8741 596.888 52.3346 595.738 73.4216H641.938C642.321 72.2714 642.513 69.2042 642.513 67.6706C642.513 49.8425 635.803 39.8741 621.234 39.8741Z" fill="#F0EBE2"/>
</svg>
