<svg width="767" height="169" viewBox="0 0 767 169" fill="none" xmlns="http://www.w3.org/2000/svg">
<path d="M708.667 133.424C683.938 133.424 680.296 116.554 680.296 97.7674V43.5162H671.286C668.027 43.5162 665.727 42.5577 665.727 39.1071C665.727 35.8482 668.027 34.698 671.286 34.698H672.436C686.622 34.698 681.063 1.72559 694.29 1.72559C698.316 1.72559 698.891 3.64258 698.891 9.39359V34.698H721.32C724.579 34.698 726.879 35.4648 726.879 39.1071C726.879 42.5577 724.579 43.5162 721.32 43.5162H698.891V97.5757C698.891 113.295 697.741 125.756 709.626 125.756C718.252 125.756 720.745 119.046 720.745 110.611C720.745 104.285 722.086 99.301 728.796 99.301C733.205 99.301 736.081 102.56 736.081 109.844C736.081 116.554 731.48 133.424 708.667 133.424Z" fill="#F0EBE2"/>
</svg>
