<svg width="767" height="169" viewBox="0 0 767 169" fill="none" xmlns="http://www.w3.org/2000/svg">
<path d="M534.741 130.548C528.223 130.548 526.881 127.672 526.69 121.538V112.336H526.115C517.105 125.372 506.561 130.548 495.634 130.548C463.812 130.548 460.936 109.269 460.936 84.1561V55.9762C461.128 53.8675 460.17 52.1422 458.828 51.3754C451.927 47.7331 448.859 46.7746 448.859 43.1323C448.859 41.9821 450.201 40.4485 451.927 38.9149C456.336 35.4643 467.646 32.0137 470.521 32.0137C477.039 32.0137 478.381 34.8892 478.573 41.0236V85.8814C478.573 104.476 482.982 117.704 499.277 117.704C518.447 117.704 526.69 103.71 526.69 85.6897L526.881 55.9762C527.073 53.8675 526.115 52.1422 524.773 51.3754C517.871 47.7331 514.804 46.7746 514.804 43.1323C514.804 41.9821 515.954 40.6402 517.68 39.1066C521.897 35.656 533.207 32.0137 536.275 32.0137C542.792 32.0137 544.134 34.8892 544.326 41.0236L544.134 106.585C543.943 108.694 544.901 110.419 546.243 111.186C553.144 114.828 556.211 115.787 556.211 119.429C556.211 123.263 540.875 130.548 534.741 130.548Z" fill="#F0EBE2"/>
</svg>
