<svg width="767" height="169" viewBox="0 0 767 169" fill="none" xmlns="http://www.w3.org/2000/svg">
<path d="M424.645 167.738C416.786 168.888 405.667 170.038 405.667 165.054C405.667 163.52 406.242 163.329 408.926 160.836C411.801 158.153 412.185 155.469 412.185 146.076V117.896C405.092 127.481 394.548 133.232 382.088 133.232C355.25 133.232 334.93 113.103 334.93 82.4311C334.93 52.7176 355.442 31.8223 382.663 31.8223C395.124 31.8223 404.517 36.0397 412.185 40.2571C415.827 33.5476 421.195 32.014 425.22 32.014C428.479 32.014 429.821 33.7393 429.821 39.682V147.034C429.821 151.827 432.505 153.935 435.189 155.277C438.256 156.811 441.323 156.811 441.323 159.686C441.323 164.095 433.08 166.396 424.645 167.738ZM386.497 123.455C397.999 123.647 412.185 113.678 412.185 93.5497V70.5457C412.185 56.5516 399.149 39.4903 382.471 39.4903C365.41 39.4903 356.208 53.4844 355.825 76.2967C355.442 103.135 368.477 123.263 386.497 123.455Z" fill="#F0EBE2"/>
</svg>
