<svg width="767" height="170" viewBox="0 0 767 170" fill="none" xmlns="http://www.w3.org/2000/svg">
<path d="M7.98832 131.242C2.42901 131.242 0.320312 129.709 0.320312 126.833C0.320312 121.849 11.8223 121.657 11.8223 113.989V17.9474C11.8223 10.2793 0.320312 10.0876 0.320312 5.10344C0.320312 2.22794 2.42901 0.694336 7.98832 0.694336H20.6405C31.5674 1.07774 34.2512 11.2378 40.1939 23.5067L71.8245 87.9179L111.506 6.06194C113.615 2.61135 116.874 0.694336 123.967 0.694336H138.344C143.904 0.694336 146.012 2.22794 146.012 5.10344C146.012 10.0876 134.51 10.2793 134.51 17.9474V113.989C134.51 121.657 146.012 121.849 146.012 126.833C146.012 129.709 143.904 131.242 138.344 131.242H112.465C106.906 131.242 104.797 129.709 104.797 126.833C104.797 121.849 116.299 121.657 116.299 113.989V17.5639L80.6427 90.41C75.4668 101.145 73.9332 103.446 67.9905 103.446C62.2395 103.446 60.5142 102.487 56.4885 94.4357L21.7907 23.315V113.989C21.7907 121.657 33.2927 121.849 33.2927 126.833C33.2927 129.709 31.184 131.242 25.6247 131.242H7.98832Z" fill="#F0EBE2"/>
</svg>
